Coordinates
version=1
nRows=14
nColumns=33
inDegrees=yes

Units are S.I. units (second, meters, Newtons, ...)
Angles are in degrees.

endheader
time	ground_thorax_rot_x	ground_thorax_rot_y	ground_thorax_rot_z	ground_thorax_tx	ground_thorax_ty	ground_thorax_tz	clav_prot_r	clav_elev_r	scapula_abduction_r	scapula_elevation_r	scapula_upward_rot_r	scapula_winging_r	shoulder_elv_r	plane_of_elev_r	axial_rot_r	elbow_flexion_r	pro_sup_r	wrist_flex_r	wrist_dev_r	clav_prot_l	clav_elev_l	scapula_abduction_l	scapula_elevation_l	scapula_upward_rot_l	scapula_winging_l	shoulder_elv_l	plane_of_elev_l	axial_rot_l	elbow_flexion_l	pro_sup_l	wrist_flex_l	wrist_dev_l
      6.50000000	     36.86120639	     17.45387718	     20.19385688	   -284.15351360	    829.15483439	      9.97933702	     11.70972558	     37.07602790	     35.27346908	     45.00000000	    -42.19847405	   2069.27197317	  -1191.71273452	    147.21594229	   -122.62388453	   1458.88718590	     90.74323428	     12.84303866	      2.27323498	      8.78181658	    -45.00000000	    -35.76171754	     45.00000000	    -45.00000000	  -2415.66151266	   1517.65966284	     19.02731436	    -63.87782391	   1457.19507757	     89.45109179	     -1.74298291	    -14.04842876
      6.51000000	     36.76162912	     17.67530495	     20.47952466	   -284.22137928	    828.89023059	     10.02836673	     12.00407341	     36.68369261	     35.26033020	     45.00000000	    -42.39766943	   2069.31011336	  -1191.73675508	    147.24508291	   -122.31680523	   1458.74380201	     90.55159721	     13.19492891	      2.40122281	      8.81151059	    -45.00000000	    -35.47004106	     45.00000000	    -45.00000000	  -2415.77332070	   1517.85723083	     18.92202250	    -63.93672946	   1457.03185558	     88.88081588	     -1.26644594	    -13.68643650
      6.52000000	     36.79128235	     17.62907961	     20.39306645	   -284.22845283	    828.64193789	     10.07343890	     11.80153104	     37.14151423	     35.32376072	     45.00000000	    -42.33660372	   2069.20961677	  -1191.80903376	    147.24200126	   -122.53279232	   1458.83766923	     90.32266133	     12.70924557	      2.29814903	      8.79652182	    -45.00000000	    -35.71457391	     45.00000000	    -45.00000000	  -2415.61002630	   1517.61453139	     19.08637021	    -64.04311755	   1456.98676707	     88.26429936	     -1.66321851	    -14.03773634
      6.53000000	     36.68321545	     17.72888250	     20.56711802	   -284.17944213	    828.42333728	     10.11392135	     11.97443126	     36.53986488	     35.21649192	     45.00000000	    -42.60333665	   2069.47260857	  -1191.60712375	    147.20107082	   -122.11530685	   1458.79972895	     90.18402504	     13.35931042	      2.40327268	      8.78131128	    -45.00000000	    -35.58387110	     45.00000000	    -45.00000000	  -2415.74795992	   1517.88322847	     18.85815953	    -63.65775834	   1457.10407939	     87.71130206	     -1.36786057	    -13.70592954
      6.54000000	     36.79454618	     17.63364016	     20.35780572	   -284.07937260	    828.21305873	     10.15484190	     11.81062298	     37.23069438	     35.34981065	     45.00000000	    -42.44543113	   2069.25584584	  -1191.84854861	    147.20062379	   -122.54021862	   1458.73976947	     90.02272873	     12.58445947	      2.32070941	      8.86360887	    -45.00000000	    -35.76376258	     45.00000000	    -45.00000000	  -2415.60083242	   1517.51614619	     19.16603070	    -63.88393236	   1457.00171016	     87.13062267	     -1.65673978	    -14.15215036
      6.55000000	     36.63423777	     17.89587680	     20.76506925	   -283.93598018	    828.01886210	     10.19448670	     11.96625299	     36.52022486	     35.25337245	     45.00000000	    -42.64543332	   2069.42787509	  -1191.63572362	    147.27749867	   -122.15783026	   1458.84044919	     89.91163740	     13.32546823	      2.39094650	      8.72423731	    -45.00000000	    -35.74912643	     45.00000000	    -45.00000000	  -2415.78725330	   1517.75276951	     18.80687331	    -63.35422311	   1456.99855921	     86.56449438	     -1.45448907	    -13.78982493
      6.56000000	     36.68622325	     17.71131595	     20.54000949	   -283.74733417	    827.82821091	     10.23399709	     11.83897245	     37.14938512	     35.34248965	     45.00000000	    -42.50223922	   2069.26724309	  -1191.82168532	    147.18681627	   -122.50926170	   1458.83029118	     89.79271543	     12.63971915	      2.31201390	      8.88184860	    -45.00000000	    -35.74295497	     45.00000000	    -45.00000000	  -2415.65769982	   1517.53138358	     19.21669091	    -63.49000853	   1456.82076202	     85.99035763	     -1.59683722	    -14.15496272
      6.57000000	     36.52234842	     17.97835960	     20.89833114	   -283.52497871	    827.64874215	     10.26943721	     11.95981390	     36.60086950	     35.24521333	     45.00000000	    -42.64441542	   2069.40654620	  -1191.72317508	    147.27483095	   -122.22877519	   1458.85717938	     89.72907410	     13.20520571	      2.36683343	      8.73627350	    -45.00000000	    -35.79933927	     45.00000000	    -45.00000000	  -2415.79518058	   1517.72937177	     18.95417668	    -63.00771784	   1456.83103868	     85.43419022	     -1.50912275	    -13.88525538
      6.58000000	     36.60956383	     17.81951555	     20.72304422	   -283.26711807	    827.47394470	     10.29950480	     11.84114991	     37.14809590	     35.35902766	     45.00000000	    -42.50724714	   2069.26393938	  -1191.87889408	    147.20224381	   -122.55787879	   1458.81706630	     89.67362050	     12.57527533	      2.30617486	      8.92098362	    -45.00000000	    -35.69240634	     45.00000000	    -45.00000000	  -2415.70346411	   1517.50648297	     19.35403411	    -63.08391445	   1456.64771814	     84.94283575	     -1.57740588	    -14.18734251
      6.59000000	     36.37325925	     18.13700511	     21.14933648	   -282.97993405	    827.30555647	     10.32133273	     11.99580609	     36.57349209	     35.22007264	     45.00000000	    -42.66080906	   2069.44267529	  -1191.71926073	    147.29691621	   -122.22046369	   1458.88890316	     89.66601222	     13.27083880	      2.34659516	      8.70354437	    -45.00000000	    -35.83341289	     45.00000000	    -45.00000000	  -2415.86766239	   1517.78076546	     19.03908123	    -62.54390058	   1456.66033018	     84.44257024	     -1.52416033	    -13.86801146
      6.60000000	     36.60807227	     17.87003877	     20.87708652	   -282.66189191	    827.14129758	     10.33331511	     11.80131786	     37.21932985	     35.43134313	     45.00000000	    -42.36946314	   2069.11574993	  -1191.98252771	    147.19811198	   -122.76108419	   1458.74026936	     89.66376234	     12.30652184	      2.29503518	      9.04343574	    -45.00000000	    -35.52220431	     45.00000000	    -45.00000000	  -2415.71737686	   1517.39279215	     19.63107675	    -62.74800021	   1456.39376758	     84.03297071	     -1.55319283	    -14.27466241
      6.61000000	     36.44523962	     17.96446463	     21.18429556	   -282.30741408	    826.97814610	     10.33397327	     11.91835593	     36.75618370	     35.30992080	     45.00000000	    -42.36750542	   2069.26807992	  -1191.83814752	    147.13898214	   -122.49253792	   1458.81766907	     89.72098021	     12.88680375	      2.32604954	      8.83568261	    -45.00000000	    -35.67134967	     45.00000000	    -45.00000000	  -2415.84363665	   1517.57363604	     19.30853998	    -62.31556766	   1456.45560714	     83.43951344	     -1.54361212	    -14.07851262
      6.62000000	     36.27520343	     18.16840763	     21.54530837	   -281.93352399	    826.82445820	     10.32236929	     11.90418403	     37.16914037	     35.45223661	     45.00000000	    -42.57378821	   2069.46592427	  -1191.70420731	    147.53619923	   -122.44580741	   1458.94740533	     89.74999512	     12.82180625	      2.24051501	      8.79613757	    -45.00000000	    -35.84200064	     45.00000000	    -45.00000000	  -2415.78975670	   1517.61285493	     19.21551855	    -61.99727545	   1456.42608862	     83.05109799	     -1.56493468	    -14.00367506
      6.63000000	     36.37622587	     17.98930105	     21.34961852	   -281.53224754	    826.67697186	     10.29877558	     11.88789439	     36.81953284	     35.43356908	     45.00000000	    -42.28212883	   2069.28473240	  -1191.84913382	    147.24401626	   -122.59498066	   1458.91264765	     89.85126919	     12.84944643	      2.29043334	      8.84923055	    -45.00000000	    -35.73177566	     45.00000000	    -45.00000000	  -2415.91355978	   1517.54231261	     19.38834628	    -61.96350075	   1456.37727867	     82.58933591	     -1.56074767	    -14.11379109
